PathFileType	4	(X/Y/Z)	D:\Share\Shared_Data\Ergonomics\Sit To Stand Pertubation\S3\S3 Cal 01.trc
DataRate	CameraRate	NumFrames	NumMarkers	Units	OrigDataRate	OrigDataStartFrame	OrigNumFrames	
100	100	13	21	mm	100	128	204
Frame#	Time	R_ASIS			R_Pelvis			V_Sacral			L_Pelvis			L_ASIS			Clavical			R_Acromium			L_Acromium			Sternum			Torso			R_Thigh_Med			R_Thigh_Lat			R_Thigh			R_Shank_Med			R_Shank_Lat			R_Shank			R_Heel			R_Toe			RAJC			RHJC			RKJC			
		X1	Y1	Z1	X2	Y2	Z2	X3	Y3	Z3	X4	Y4	Z4	X5	Y5	Z5	X6	Y6	Z6	X7	Y7	Z7	X8	Y8	Z8	X9	Y9	Z9	X10	Y10	Z10	X11	Y11	Z11	X12	Y12	Z12	X13	Y13	Z13	X14	Y14	Z14	X15	Y15	Z15	X16	Y16	Z16	X17	Y17	Z17	X18	Y18	Z18	X19	Y19	Z19	X20	Y20	Z20	X21	Y21	Z21	

128	1.27	306.26468	940.79871	126.37092	195.77818	954.95752	177.58159	93.128014	991.75244	-15.417609	205.16631	963.58112	-209.26613	306.79111	930.98975	-157.37801	275.15182	1375.8308	-14.402195	191.58827	1425.6942	149.66193	217.703	1427.1481	-169.76138	307.83917	1302.6262	-9.2168217	281.5708	1361.4888	-81.612839	256.3688	468.41064	31.194502	224.29764	457.29211	130.35451	312.7626	661.58649	89.145493	181.15886	104.98584	73.118111	166.23248	98.705307	154.2285	164.47112	284.89224	157.61133	110.2713	56.337276	114.79337	327.96652	56.059772	103.74878	173.69567	101.8455735	113.6733055	221.2308408	862.3792747	87.93329704	240.33322	462.851375	80.774506
129	1.28	306.28525	940.7962	126.36799	195.84538	954.93951	177.57942	93.156807	991.69916	-15.387422	205.17937	963.56842	-209.26317	306.78531	931	-157.39143	275.12265	1375.8048	-14.369724	191.48167	1425.6299	149.64249	217.69606	1427.1084	-169.72995	307.78445	1302.6116	-9.1991615	281.53827	1361.4854	-81.59449	256.39502	468.39008	31.204884	224.29062	457.23532	130.39737	312.86649	661.58215	89.177727	181.13669	105.06467	73.285538	166.1423	98.772537	154.00096	164.48389	284.87927	157.60228	110.23548	56.338589	114.77099	327.97568	56.057648	103.72458	173.639495	101.9186035	113.643249	221.2728411	862.3540289	87.9338433	240.34282	462.8127	80.801127
130	1.29	306.37845	940.80963	126.38712	195.84938	954.92303	177.63811	93.177124	991.65649	-15.396372	205.19028	963.56879	-209.25478	306.80179	931.01605	-157.38809	275.09891	1375.7778	-14.338737	191.40218	1425.6287	149.67213	217.66676	1427.0806	-169.71446	307.75766	1302.5995	-9.1583576	281.47409	1361.4414	-81.578819	256.56622	468.45035	31.249987	224.30939	457.23343	130.40736	312.92258	661.55609	89.175987	181.14674	105.02917	73.225609	166.17644	98.772224	154.16661	164.53442	284.88589	157.6172	110.24654	56.332497	114.7985	327.94559	56.069157	103.71803	173.66159	101.900697	113.6961095	221.3716401	862.340655	87.97340972	240.437805	462.84189	80.8286735
131	1.3	306.3667	940.79547	126.34204	195.96759	954.92993	177.57108	93.207466	991.65417	-15.367133	205.18752	963.57208	-209.26382	306.83551	931.02338	-157.40373	275.04907	1375.7604	-14.318136	191.3632	1425.6388	149.69594	217.62077	1427.0282	-169.70651	307.71454	1302.5957	-9.0982027	281.44327	1361.3971	-81.53582	256.49557	468.40793	31.216522	224.39389	457.23044	130.40776	312.96823	661.55109	89.17952	181.16791	104.9827	73.096779	166.26093	98.768532	154.2099	164.5807	284.89597	157.62285	110.24118	56.325195	114.81724	327.95609	56.085861	103.71608	173.71442	101.875616	113.6533395	221.3715515	862.3382129	87.91385812	240.44473	462.819185	80.812141
132	1.31	306.42923	940.80927	126.33188	196.01218	954.91168	177.60587	93.227249	991.63507	-15.335742	205.20367	963.5719	-209.24419	306.81955	931.03699	-157.39438	275.03778	1375.7229	-14.274396	191.33989	1425.6638	149.75841	217.60307	1426.9901	-169.64212	307.67865	1302.5869	-9.0292616	281.40948	1361.3914	-81.484413	256.60062	468.48306	31.212124	224.43269	457.2204	130.39484	313.02557	661.55145	89.187187	181.13921	105.0386	73.288345	166.94533	98.57515	155.99977	164.60358	284.8587	157.63167	110.24116	56.329033	114.82198	327.95126	56.081074	103.72787	174.04227	101.806875	114.6440575	221.4371633	862.3451748	87.93102826	240.516655	462.85173	80.803482
133	1.32	306.60529	940.78809	126.39618	196.07364	954.88348	177.69153	93.26931	991.61279	-15.279074	205.19748	963.58002	-209.25342	306.81891	931.03278	-157.38884	275.01767	1375.7019	-14.229748	191.30215	1425.687	149.81409	217.5663	1426.9385	-169.62062	307.63696	1302.5635	-8.9734097	281.397	1361.3859	-81.410019	256.68503	468.43225	31.225492	224.48259	457.22452	130.401	313.07404	661.55212	89.168617	181.14969	105.0478	73.241356	166.9142	98.588699	156.02995	164.67609	284.87732	157.68146	110.23799	56.319767	114.81396	327.94455	56.080303	103.72639	174.031945	101.8182495	114.635653	221.5811854	862.3053779	88.03390084	240.58381	462.828385	80.813246
134	1.33	306.56433	940.77771	126.33297	196.16081	954.87122	177.71165	93.30217	991.62213	-15.238216	205.19327	963.57855	-209.23891	306.81973	931.0401	-157.38138	274.96646	1375.6824	-14.180684	191.24179	1425.7059	149.84489	217.52034	1426.9163	-169.57823	307.60678	1302.5492	-8.9066839	281.39584	1361.3792	-81.358192	256.72687	468.45142	31.24189	224.56812	457.21262	130.39453	313.16046	661.56293	89.157524	181.13133	105.0528	73.292122	166.96759	98.545166	156.05811	164.73032	284.86694	157.68979	110.23627	56.301884	114.8221	327.94501	56.083969	103.73006	174.04946	101.798983	114.675116	221.5552698	862.3231754	87.96515845	240.647495	462.83202	80.81821
135	1.34	306.60455	940.75189	126.33106	196.22549	954.85303	177.70888	93.331032	991.60938	-15.151191	205.1814	963.586	-209.22733	306.81555	931.04047	-157.38788	274.96085	1375.6587	-14.125214	191.18752	1425.7494	149.845	217.47388	1426.9192	-169.5381	307.55161	1302.5411	-8.8474884	281.40912	1361.3903	-81.306923	256.7919	468.47598	31.225376	224.64392	457.19589	130.40974	313.25262	661.54858	89.107147	181.15839	104.97713	73.093575	166.99673	98.489182	156.03751	164.73616	284.87204	157.65501	110.2252	56.307011	114.80608	327.93207	56.07761	103.72008	174.07756	101.733156	114.5655425	221.5912673	862.2995887	87.96870181	240.71791	462.835935	80.817558
136	1.35	306.74597	940.73273	126.37733	196.28616	954.82379	177.76471	93.361893	991.61719	-15.11983	205.16025	963.59216	-209.2251	306.80212	931.04071	-157.38991	274.95007	1375.6332	-14.060371	191.09718	1425.7433	149.88966	217.36685	1426.9221	-169.5737	307.5383	1302.5381	-8.7565966	281.41226	1361.3926	-81.252373	256.92227	468.39841	31.249125	224.7253	457.18259	130.41151	313.33578	661.53717	89.077805	181.16014	105.03738	73.24221	167.00674	98.584435	156.1376	164.80623	284.8761	157.69806	110.23138	56.300602	114.8333	327.94046	56.072247	103.73809	174.08344	101.8109075	114.689905	221.695511	862.2760267	88.04772479	240.823785	462.7905	80.8303175
137	1.36	306.82437	940.71216	126.37442	196.39397	954.80243	177.76707	93.39711	991.61975	-15.041068	205.15811	963.60535	-209.17299	306.78378	931.04785	-157.37785	274.92233	1375.5931	-14.031743	191.05722	1425.7675	149.90837	217.33875	1426.948	-169.49774	307.52417	1302.5319	-8.6918945	281.39819	1361.4055	-81.217644	256.90298	468.42526	31.214993	224.83098	457.23529	130.34402	313.42307	661.52997	89.032326	181.15538	104.9667	73.101837	166.90613	98.533134	156.05568	164.82532	284.84238	157.67946	110.23135	56.30191	114.84253	327.93179	56.077477	103.72915	174.030755	101.749917	114.5787585	221.7590016	862.2676919	88.06871556	240.86698	462.830275	80.7795065
138	1.37	306.87787	940.68829	126.35516	196.43929	954.76337	177.86057	93.422447	991.61029	-14.981446	205.12143	963.60852	-209.16779	306.77313	931.05334	-157.37367	274.9086	1375.6338	-13.971309	190.99077	1425.7731	149.91829	217.33159	1426.9965	-169.43416	307.50226	1302.5433	-8.6337223	281.42804	1361.4607	-81.141693	257.07404	468.44467	31.246504	224.83168	457.14676	130.38663	313.47467	661.50488	89.043938	181.15195	104.95621	73.092873	166.9993	98.442696	156.09274	164.87213	284.85806	157.71347	110.23911	56.292141	114.83133	327.93912	56.067204	103.72701	174.075625	101.699453	114.5928065	221.8064443	862.2547893	88.06471222	240.95286	462.795715	80.816567
139	1.38	306.88211	940.67273	126.3138	196.55402	954.75183	177.89116	93.455406	991.60431	-14.894378	205.08934	963.63177	-209.11092	306.74829	931.06396	-157.36853	274.91269	1375.6263	-13.943953	190.95039	1425.7959	149.94093	217.27988	1427.0275	-169.41881	307.47885	1302.5221	-8.6040535	281.43741	1361.4658	-81.100327	257.06122	468.43903	31.260944	224.93077	457.12848	130.4243	313.48709	661.5321	88.979042	181.12785	104.95953	73.13002	166.9175	98.413475	156.01483	164.91566	284.85327	157.74466	110.23662	56.296135	114.84125	327.93558	56.065956	103.72926	174.022675	101.6865025	114.572425	221.8184677	862.2559025	88.03288027	240.995995	462.783755	80.842622
140	1.39	306.9632	940.65375	126.32529	196.64586	954.73871	177.91174	93.484283	991.63727	-14.862958	205.07927	963.63971	-209.07814	306.75153	931.06195	-157.36452	274.8996	1375.6383	-13.908238	190.89017	1425.8237	149.9446	217.25716	1427.0999	-169.36659	307.45303	1302.5281	-8.5371084	281.4743	1361.512	-81.071663	257.11002	468.37384	31.254091	224.98271	457.10687	130.45151	313.56848	661.52966	88.95517	181.15265	104.97121	73.110855	166.92216	98.467545	155.95657	164.96841	284.85938	157.757	110.22903	56.298416	114.82417	327.93262	56.068699	103.73138	174.037405	101.7193775	114.5337125	221.8690251	862.2540237	88.06129129	241.046365	462.740355	80.8528005
